::General::
Complete name: Madagascar 3 Europes Most Wanted 2012 1080p BRrip x264 [Dual Audio] English-Hindi NimitMak SilverRG
Director: Eric Darnell, Tom McGrath, Conrad Vernon
Format: MPEG-4
File size: 1.46 GiB
Duration: 1h 33mn
Overall Bitrate: 2237 Kbps
Language: Dual Audio [English-Hind]
Sub Title: English Embedded + .Srt (Included) Can Be Turned Off
Encoded date: 2012-11-04
Writing application: MeGui
Writing library: x264 core 100 r1659 57b2e56
Encoder: NimitMak
Source: 1080p.BluRay.x264.AC3-HDChina

::Video::
ID: 1
Format: AVC
Format/Info: Advanced Video Codec
Format profile: High@L4.0
Format settings, CABAC: Yes
Format settings, ReFrames: 4 frames
Codec ID: V_MPEG4/ISO/AVC
Nominal Bitrate: 2042 Kbps / 22.0 Mbps
Width: 1920 pixels
Height: 1080 pixels
Display aspect ratio: 16:9
Frame rate: 23.976 fps
Color space: YUV
Chroma subsampling: 4:2:0
Bit depth: 8 bits
Scan type: Progressive
Writing library: x264 core 100 r1659 57b2e56

::Audio #1::
ID: 2
Format: AAC
Format/Info: Advanced Audio Codec
Format profile: HE-AAC / LC
Codec ID: 40
Duration: 1h 33mn
Bit rate mode: Variable
Bit rate: 63.9 Kbps
Maximum bit rate: 83.8 Kbps
Channel(s): 2 channels
Channel positions: Front: L R
Sampling rate: 48.0 KHz / 24.0 KHz
Compression mode: Lossy
Stream size: 42.7 MiB (3%)
Title: English - Nimitmak SilverRG
Language: English

::Audio #2::
ID: 3
Format: AAC
Format/Info: Advanced Audio Codec
Format profile: HE-AAC / LC
Codec ID: 40
Duration: 1h 33mn
Bit rate mode: Variable
Bit rate: 128 Kbps
Maximum bit rat: 162 Kbps
Channel(s): 2 channels
Channel positions: Front: L R
Sampling rate: 48.0 KHz / 24.0 KHz
Compression mode: Lossy
Stream size: 85.3 MiB (6%)
Title: Hindi - NimitMak SilverRG(Thanks to Prisak Bro For Audio)
Language: Hindi

::Text #1::
ID: 4
Format: Timed text
Codec ID: tx3g
Duration: 1h 25mn
Bit rate mode: Variable
Bit rate: 107 bps
Stream size: 67.0 KiB (0%)
Title: English - Nimitmak SilverRG

Screens :